<svg xmlns="http://www.w3.org/2000/svg">
  <symbol id="phone" viewBox="0 0 16 16">
    <path fill="white" d="M15.965 12.397c-0.045-0.136-0.333-0.337-0.864-0.602-0.144-0.084-0.348-0.197-0.613-0.341s-0.506-0.277-0.722-0.398c-0.216-0.121-0.419-0.239-0.608-0.352-0.030-0.023-0.125-0.089-0.284-0.199s-0.294-0.191-0.404-0.244c-0.11-0.053-0.218-0.079-0.324-0.079-0.151 0-0.341 0.108-0.568 0.324s-0.436 0.451-0.625 0.705c-0.189 0.254-0.39 0.489-0.602 0.704s-0.387 0.324-0.523 0.324c-0.068 0-0.154-0.019-0.256-0.057s-0.18-0.070-0.233-0.096c-0.053-0.027-0.144-0.080-0.272-0.159s-0.201-0.123-0.216-0.131c-1.038-0.576-1.928-1.235-2.67-1.977s-1.401-1.633-1.977-2.671c-0.008-0.015-0.051-0.087-0.131-0.216s-0.133-0.22-0.159-0.273c-0.026-0.053-0.059-0.131-0.097-0.233s-0.057-0.187-0.057-0.256c0-0.136 0.108-0.311 0.324-0.523s0.451-0.413 0.704-0.602c0.254-0.189 0.489-0.398 0.705-0.625s0.324-0.417 0.324-0.568c0-0.106-0.027-0.214-0.079-0.324s-0.134-0.244-0.244-0.404c-0.11-0.159-0.176-0.254-0.199-0.284-0.114-0.189-0.231-0.392-0.352-0.608s-0.254-0.457-0.398-0.722c-0.144-0.265-0.257-0.47-0.341-0.614-0.265-0.53-0.466-0.818-0.602-0.863-0.053-0.023-0.133-0.034-0.239-0.034-0.205 0-0.472 0.038-0.801 0.114s-0.589 0.155-0.778 0.239c-0.379 0.159-0.78 0.621-1.205 1.386-0.386 0.712-0.58 1.417-0.58 2.114 0 0.204 0.013 0.403 0.040 0.597s0.074 0.411 0.142 0.653c0.068 0.242 0.123 0.422 0.165 0.54s0.119 0.328 0.233 0.631c0.114 0.303 0.182 0.489 0.205 0.557 0.265 0.742 0.58 1.405 0.943 1.989 0.598 0.97 1.415 1.972 2.449 3.006s2.036 1.85 3.006 2.449c0.583 0.364 1.246 0.678 1.989 0.943 0.068 0.023 0.254 0.091 0.557 0.205s0.513 0.191 0.631 0.233c0.117 0.042 0.297 0.097 0.54 0.165s0.46 0.116 0.653 0.142c0.193 0.026 0.392 0.040 0.597 0.040 0.697 0 1.402-0.193 2.114-0.58 0.765-0.424 1.227-0.826 1.386-1.205 0.084-0.189 0.163-0.449 0.239-0.778s0.114-0.596 0.114-0.801c0-0.106-0.011-0.186-0.034-0.239z"></path>  
  </symbol>

  <symbol id="hero1" viewBox="0 0 16 16">
    <path fill="#c6f7ff" style="fill: var(--color2, #c6f7ff)" d="M2.3 9.8c0 0.2 0.1 0.4 0.1 0.6 0 0.8 0.1 2.1 0.1 2.1h0.5c0 0 0-2.1-0.3-3.2-0.3-1.2-0.4-3.4 0.3-5l-0.5-0.2c0 0-0.6 1.2-0.6 3.1 0 1.2 0.1 1.7 0.2 2.2-0.4-0.3-1.5-1.3-1.4-3.4 0.2-2.4 2.3-4.6 2.3-4.6s3.7 3.5 0.4 7.4l0.4 0.3c0 0 1.5-1.7 1.5-3.6s-0.8-3.5-2.3-4.8c0 0-2.6 2.5-2.8 5.5-0.1 2.8 2 3.8 2 3.8l0.1-0.2z"></path>
    <path fill="#c6f7ff" style="fill: var(--color2, #c6f7ff)" d="M7.5 7.2c-3.7 1.1-3.5 4.7-3.4 5.5-1.3 1.3-1.9 2.5-1.9 2.5l0.4 0.2c3.8-6.3 9.7-5.1 9.7-5.1v-0.5c-3.6-0.4-6.1 1-7.8 2.4v0c-0.1-1.3 0.5-4.4 4.3-4.7 4.4-0.1 6.5 2.5 6.5 2.5-2.3 3.7-4.9 4.2-6.5 4.4-1.7 0.3-3.8-0.9-3.8-0.9l-0.2 0.4c0 0 1.8 1.2 4.1 1 5-0.6 6.9-5 6.9-5-0.5-1-4.2-3.7-8.3-2.7z"></path>  
  </symbol>

  <symbol id="hero2" viewBox="0 0 16 16">
    <path fill="#c6f7ff" style="fill: var(--color2, #c6f7ff)" d="M2.578 6.4l0.889-0.711c0 0 0.089 0 0.089 0 0.267 0 0.444-0.178 0.444-0.444 0-0.178-0.089-0.267-0.178-0.356v-1.867h-0.444v1.867c-0.178 0.089-0.267 0.178-0.267 0.356 0 0 0 0.089 0 0.089l-0.889 0.711 0.356 0.356z"></path>
    <path fill="#c6f7ff" style="fill: var(--color2, #c6f7ff)" d="M16.089 11.2v-2.844c0-0.889-0.356-1.244-0.356-1.244s-0.889-1.156-1.422-1.867-1.244-0.711-1.244-0.711h-3.022v-0.444c0-0.622-0.444-1.067-1.067-1.067h-2.578c-0.622-0.889-1.689-1.511-2.844-1.511-1.956 0-3.467 1.6-3.467 3.556 0 0.8 0.267 1.511 0.711 2.133v3.911c0 0.622 0.444 1.067 1.067 1.067h0.444c0 0 0 0.089 0 0.089 0 1.067 0.889 1.956 1.956 1.956s1.956-0.889 1.956-1.956c0-0.089 0-0.089 0-0.089h2.756c0.267 0 0.889 0 1.689 0 0 0 0 0.089 0 0.089 0 1.067 0.889 1.956 1.956 1.956s1.956-0.889 1.956-1.956c0-0.089 0-0.089 0-0.089 0.089 0 0.178 0 0.178 0 1.511 0.089 1.333-0.978 1.333-0.978zM15.644 8.089c0 0 0 0.089 0 0.267h-3.467c-0.178 0-0.356-0.178-0.356-0.356v-1.422c0-0.178 0.178-0.356 0.356-0.356h2.311c0.267 0.267 0.533 0.622 0.711 0.889 0.444 0.533 0.444 0.978 0.444 0.978zM3.556 2.044c1.689 0 3.111 1.333 3.111 3.111s-1.422 3.022-3.111 3.022-3.022-1.422-3.022-3.111 1.333-3.022 3.022-3.022zM4.178 13.778c-0.8 0-1.422-0.622-1.422-1.422s0.622-1.422 1.422-1.422 1.422 0.622 1.422 1.422-0.622 1.422-1.422 1.422zM5.956 11.733c-0.267-0.711-0.978-1.333-1.778-1.333s-1.511 0.533-1.778 1.333h-0.622c-0.267 0-0.533-0.267-0.533-0.533v-3.556c0.622 0.533 1.422 0.889 2.311 0.889 1.956 0 3.467-1.6 3.467-3.467 0-0.533-0.178-1.067-0.356-1.511h2.311c0.267 0 0.533 0.267 0.533 0.533v7.111c0 0.267-0.267 0.533-0.533 0.533h-3.022zM12.533 13.778c-0.8 0-1.422-0.622-1.422-1.422s0.622-1.422 1.422-1.422 1.422 0.622 1.422 1.422-0.622 1.422-1.422 1.422zM14.756 11.822h-0.356c-0.267-0.8-0.978-1.333-1.778-1.333-0.889 0-1.6 0.533-1.778 1.333h-0.889c0.178-0.178 0.267-0.356 0.267-0.622v-6.311c0 0 1.956 0 2.756 0s1.156 0.533 1.156 0.533-0.089 0.178 0.089 0.356h-2.044c-0.444 0-0.711 0.356-0.711 0.711v1.422c0 0.444 0.356 0.711 0.711 0.711h3.556c0 0.711 0 1.778 0 2.311-0.089 0.978-0.978 0.889-0.978 0.889z"></path>
  </symbol>

  <symbol id="hero3" viewBox="0 0 16 16">
    <path fill="#c6f7ff" style="fill: var(--color3, #c6f7ff)" d="M4.526 3.158c0 0.211 0.421 0.421 1.053 0.421s1.053-0.211 1.053-0.421c0-0.211-0.421-0.421-1.053-0.421-0.526 0-1.053 0.105-1.053 0.421z"></path>
    <path fill="#c6f7ff" style="fill: var(--color3, #c6f7ff)" d="M15.895 7.053c0-1.053-0.842-1.895-1.895-1.895h-9.684c0 0-2.526 0.105-3.684-1.895 0.105-1.474 1.263-2.526 2.737-2.526h4.211c1.579 0 2.737 1.263 2.737 2.737v0.526h0.526v-0.421c0-1.895-1.474-3.368-3.368-3.368h-4c-1.895 0-3.368 1.474-3.368 3.368v4.947c0 1.895 1.474 3.368 3.368 3.368h0.737v-0.526h-0.842c-1.579 0-2.737-1.263-2.737-2.737v-4.421c0.316 0.421 1.368 1.474 3.579 1.474 3.158 0 9.263 0 9.263 0h0.526c0.737 0 1.263 0.526 1.263 1.263v0.842c0 0.737-0.526 1.263-1.263 1.263h-6.737c-1.053 0-1.895 0.842-1.895 1.895v2.842c0 1.053 0.842 1.895 1.895 1.895h6.737c1.053 0 1.895-0.842 1.895-1.895v-2.842c0 0 0-2.526 0-3.263 0 0 0 0 0-0.105v-0.526zM15.263 14c0 0.737-0.526 1.263-1.263 1.263h-6.842c-0.737 0-1.263-0.526-1.263-1.263v-3.053c0-0.737 0.526-1.263 1.263-1.263h2v1.789h0.526v-1.789h3.368v1.789h0.526v-1.789h0.421c0.526 0 1.053-0.211 1.368-0.526v4.842z"></path>
  </symbol>

  <symbol id="why_1" viewBox="0 0 16 16">
    <path fill="black" style="fill: var(--color3, black)" d="M14.32 4.64c0.16-0.16 0.32-0.32 0.4-0.48 0.56-0.72 0.48-1.040-0.080-1.52s-1.44 0.24-1.44 0.24-0.080 0.080-0.16 0.16c-0.88-0.8-2-1.44-3.28-1.76-0.48-0.72-1.2-1.2-2-1.2-0.88 0-1.6 0.56-2.080 1.28-1.040 0.32-2 0.88-2.8 1.6-0.16-0.080-0.48-0.4-0.88-0.48-0.56-0.080-1.12 0.32-1.2 0.88 0 0.32 0.32 0.8 0.72 1.28-0.72 1.12-1.12 2.4-1.12 3.84 0 4.080 3.36 7.44 7.52 7.44 1.44 0 2.88-0.4 4-1.12l-0.24-0.56c0 0 0 0 0 0-1.040-2.64-0.8-4.32-0.72-5.12 0.24-0.88 1.12-2.080 1.6-2.72 0.32-0.4 0.8-0.8 1.28-1.28 0.64 0.96 0.96 2.080 0.96 3.36 0 1.84-0.8 3.52-2 4.8l0.48 0.4c1.36-1.36 2.16-3.2 2.16-5.2 0-1.44-0.4-2.72-1.12-3.84zM7.76 0.72c1.040 0 1.84 0.96 1.84 2.16s-0.8 2.16-1.84 2.16-1.84-0.88-1.84-2.16 0.8-2.16 1.84-2.16zM7.76 5.68c1.36 0 2.48-1.28 2.48-2.8 0-0.32-0.080-0.56-0.16-0.88 0.96 0.32 1.76 0.8 2.48 1.44-0.64 0.56-1.6 1.28-2.080 1.6-0.72 0.56-1.92 1.12-2.88 1.12s-1.44-0.4-2.16-0.72c-0.64-0.32-1.68-1.52-2.16-2 0.64-0.56 1.36-0.96 2.080-1.28 0 0.24-0.080 0.48-0.080 0.72 0 1.6 1.12 2.8 2.48 2.8zM1.040 8.48c0-1.2 0.32-2.32 0.88-3.36 0.16 0.16 0.24 0.24 0.24 0.24s2 2.32 2.4 2.88c0.4 0.56-0.080 0.96-0.4 2.4-0.24 1.12-0.24 2.64-0.24 3.36-1.76-1.28-2.88-3.28-2.88-5.52zM13.44 4.64c-0.32 0.32-1.44 1.28-2.4 2.8s-0.8 2.72-0.72 3.6c0.080 0.88 0.32 1.68 0.4 2 0.080 0.24 0.4 1.12 0.48 1.36-0.96 0.48-2.080 0.8-3.2 0.8-1.28 0-2.4-0.32-3.44-0.88 0-2.72 0.16-3.12 0.24-3.52 0-0.4 0.24-1.2 0.48-1.84 0.16-0.56-0.080-1.040-0.32-1.28s-2.56-3.040-2.96-3.6c-0.48-0.56-0.56-0.8-0.16-0.96 0.4-0.24 1.44 1.040 1.92 1.6 0.4 0.56 2.24 2.080 3.92 2s2.88-0.96 3.36-1.28c0.4-0.32 2.48-2 2.8-2.24s0.72 0 0.64 0.24c-0.080 0.24-0.72 0.88-1.040 1.2z"></path>
  </symbol>

  <symbol id="why_2" viewBox="0 0 16 16">
    <path fill="black" style="fill: var(--color3, black)" d="M7.923 0.154c-4.308 0-7.846 3.538-7.846 7.846s3.538 7.846 7.846 7.846c4.308 0 7.846-3.538 7.846-7.846s-3.538-7.846-7.846-7.846zM7.923 15.231c-4 0-7.231-3.231-7.231-7.231s3.231-7.231 7.231-7.231 7.231 3.231 7.231 7.231c0 4-3.231 7.231-7.231 7.231z"></path>
    <path fill="black" style="fill: var(--color3, black)" d="M7.923 12.077c-2.692 0-4.308-2.385-4.308-2.385l-0.538 0.385c2.154 2.769 4.846 2.692 4.846 2.692s2.692 0.154 4.846-2.692l-0.538-0.385c0 0-1.615 2.385-4.308 2.385z"></path>
    <path fill="black" style="fill: var(--color3, black)" d="M5.308 8.846c1.846-0.846 2.154-1.923 2.154-2.462 0-0.615-0.385-1.308-1.077-1.308-0.769 0-1.077 0.385-1.077 0.385s-0.308-0.385-1.077-0.385c-0.692 0-1.077 0.769-1.077 1.308s0.308 1.615 2.154 2.462zM5.308 6.231c0.385-0.615 1.462-0.692 1.538 0.077 0 1.077-1.538 1.846-1.538 1.846s-1.538-0.769-1.538-1.846c0.077-0.769 1.154-0.692 1.538-0.077z"></path>
    <path fill="black" style="fill: var(--color3, black)" d="M10.538 8.846c1.846-0.846 2.154-1.923 2.154-2.385 0-0.615-0.385-1.308-1.077-1.308-0.769 0-1.077 0.385-1.077 0.385s-0.308-0.385-1.077-0.385c-0.692 0-1.077 0.769-1.077 1.308 0 0.462 0.308 1.538 2.154 2.385zM10.538 6.231c0.385-0.615 1.462-0.692 1.538 0.077 0 1.077-1.538 1.846-1.538 1.846s-1.538-0.769-1.538-1.846c0.077-0.769 1.154-0.692 1.538-0.077z"></path>
  </symbol>

  <symbol id="why_3" viewBox="0 0 16 16">
    <path fill="black" style="fill: var(--color3, black)" d="M12.655 3.345c-1.527 0-3.491 1.091-3.418 3.345 0 0-2.982-0.945-3.855 2.182 0 0-0.509-1.091-1.164-1.6-0.727-0.509-1.6-1.818-1.673-2.473 0.073-0.364 0.145-0.364 0.291-0.436 0.073 0 0.073 0.582 0.727 0.655 0.582-0.073 0.727-0.218 0.945-0.509l0.655-0.727c0 0 0.655-0.873 0.073-1.309-0.509-0.509-1.455-1.455-2.618-1.236-0.655 0.145-1.164 0.655-1.164 0.655l-0.873 0.8c0 0-0.582 0.582-0.582 1.745 0 1.018 0.218 2.691 0.218 2.691s0.218 1.309 0.291 1.745c0.073 0.436 0.655 2.982 2.036 4.364 0.873 1.018 1.382 1.455 1.818 1.527 0.727 0 1.091-0.436 1.673-0.436s1.164 0.436 2.4 0.436 4-0.727 5.164-4.291c1.091-0.436 2.618-1.236 2.618-3.636s-2.109-3.491-3.564-3.491zM13.164 10.036c-0.8 3.2-3.345 4.073-4.582 4.218-1.164 0-1.818-0.436-2.691-0.436-0.509 0-1.236 0.436-1.455 0.436s-0.8-0.509-1.527-1.309-1.018-1.527-1.309-2.109c-0.291-0.582-0.8-2.909-0.8-2.909s-0.218-2.327-0.218-3.345c0-0.945 0.436-1.527 0.436-1.527s0.582-0.509 1.164-1.018c0.655-0.509 1.455-0.145 1.455-0.145s0.8 0.509 1.091 0.8c0.364 0.291 0 0.582 0 0.582s-0.8 1.018-1.091 1.091c-0.364 0.073-0.436-0.8-0.436-0.8-0.364 0.145-0.945 0.291-1.164 0.945-0.218 0.8 0.945 2.473 1.818 3.273 0.8 0.8 1.309 2.109 1.309 2.109l0.655-0.218c0 0-0.073-1.527 1.236-2.327 1.455-0.8 2.764 0.291 2.764 0.291-0.436-3.636 2.764-3.709 2.982-3.709s2.764 0.218 2.982 2.764c-0.145 2.909-2.618 3.345-2.618 3.345z"></path>
  </symbol>

  <symbol id="vk" viewBox="0 0 16 16">
    <path fill="#b3b3b3" style="fill: var(--color1, #b3b3b3)" d="M15.913 11.684c0-0.044-0.044-0.087-0.044-0.087-0.262-0.48-0.828-1.134-1.613-1.831v0 0 0 0c-0.349-0.349-0.567-0.567-0.654-0.698-0.174-0.218-0.218-0.436-0.131-0.654 0.087-0.174 0.305-0.523 0.741-1.090 0.218-0.305 0.392-0.523 0.523-0.698 0.959-1.264 1.395-2.093 1.264-2.441l-0.044-0.087c-0.044-0.131-0.131-0.174-0.262-0.218s-0.305-0.044-0.523 0h-2.398c-0.044 0-0.087 0-0.174 0s-0.087 0.044-0.087 0.044h-0.044l-0.044 0.044c-0.044 0-0.044 0.044-0.087 0.087s-0.044 0.087-0.087 0.131c-0.262 0.654-0.567 1.308-0.872 1.875-0.218 0.349-0.392 0.654-0.567 0.916s-0.305 0.436-0.436 0.567c-0.131 0.131-0.218 0.218-0.305 0.305s-0.174 0.087-0.218 0.087c-0.044 0-0.087-0.044-0.131-0.044-0.087-0.044-0.131-0.131-0.174-0.218s-0.087-0.174-0.087-0.305c0-0.131-0.044-0.262-0.044-0.349s0-0.218 0-0.392c0-0.174 0-0.305 0-0.349 0-0.218 0-0.436 0-0.698s0-0.436 0-0.567c0-0.131 0-0.305 0-0.48s0-0.305-0.044-0.392c0-0.087-0.044-0.174-0.087-0.262s-0.087-0.174-0.174-0.218c-0.087-0.044-0.174-0.087-0.262-0.131-0.305-0.087-0.654-0.087-1.134-0.087-1.046 0-1.7 0.044-2.005 0.218-0.131 0.044-0.218 0.131-0.305 0.262s-0.131 0.174-0.044 0.218c0.349 0.044 0.567 0.174 0.698 0.349l0.044 0.087c0.044 0.087 0.087 0.218 0.131 0.392s0.044 0.392 0.087 0.61c0.044 0.392 0.044 0.741 0 1.046s-0.044 0.523-0.087 0.654c-0.044 0.174-0.044 0.305-0.131 0.392-0.044 0.087-0.087 0.174-0.087 0.174 0 0.044-0.044 0.044-0.044 0.044-0.087 0.044-0.131 0.044-0.218 0.044s-0.174-0.044-0.262-0.131c-0.131-0.087-0.218-0.174-0.349-0.305s-0.262-0.305-0.392-0.567c-0.131-0.262-0.305-0.523-0.48-0.872l-0.131-0.262c-0.087-0.174-0.218-0.392-0.349-0.698s-0.262-0.567-0.392-0.872c-0.044-0.087-0.131-0.174-0.218-0.262h-0.044c-0.044-0.044-0.087-0.044-0.131-0.087-0.044 0-0.131-0.044-0.174-0.044h-2.267c-0.262 0-0.436 0.087-0.523 0.174v0.044c-0.044 0.044-0.044 0.087-0.044 0.131s0 0.131 0.044 0.218c0.349 0.785 0.698 1.526 1.090 2.267s0.741 1.308 1.003 1.744c0.305 0.436 0.567 0.872 0.872 1.264s0.48 0.654 0.61 0.741c0.087 0.131 0.174 0.174 0.218 0.262l0.218 0.218c0.131 0.131 0.349 0.305 0.567 0.48 0.262 0.174 0.523 0.349 0.872 0.567 0.305 0.174 0.698 0.349 1.090 0.436 0.436 0.131 0.828 0.174 1.221 0.131h0.959c0.174 0 0.349-0.087 0.436-0.174l0.044-0.044c0.044-0.044 0.044-0.087 0.044-0.174s0.044-0.131 0.044-0.218c0-0.218 0-0.436 0.044-0.654 0.044-0.174 0.087-0.349 0.131-0.436s0.131-0.174 0.174-0.262c0.087-0.087 0.131-0.087 0.131-0.131 0.044 0 0.044-0.044 0.087-0.044 0.131-0.044 0.305 0 0.48 0.131s0.349 0.305 0.523 0.48c0.174 0.174 0.349 0.392 0.567 0.654 0.218 0.218 0.436 0.436 0.567 0.523l0.174 0.087c0.131 0.087 0.262 0.131 0.436 0.174s0.349 0.087 0.48 0.044l2.136-0.044c0.218 0 0.392-0.044 0.48-0.087 0.131-0.087 0.174-0.131 0.218-0.218s0.044-0.174 0-0.305c0 0 0-0.087-0.044-0.131v0z"></path>
  </symbol>

  <symbol id="f" viewBox="0 0 16 16">
    <path fill="#b3b3b3" style="fill: var(--color1, #b3b3b3)" d="M16 15.128c0 0.48-0.392 0.872-0.872 0.872h-4.098v-6.191h2.093l0.305-2.398h-2.398v-1.526c0-0.698 0.174-1.177 1.177-1.177h1.264v-2.18c-0.218-0.044-0.959-0.087-1.875-0.087-1.831 0-3.095 1.134-3.095 3.183v1.787h-2.093v2.398h2.093v6.191h-7.629c-0.48 0-0.872-0.392-0.872-0.872v-14.256c0-0.48 0.392-0.872 0.872-0.872h14.256c0.48 0 0.872 0.392 0.872 0.872v14.256z"></path>
  </symbol>

  <symbol id="inst" viewBox="0 0 16 16">
    <path fill="#b3b3b3" style="fill: var(--color1, #b3b3b3)" d="M14.082 0h-12.163c-1.046 0-1.918 0.828-1.918 1.875v12.251c0 1.046 0.872 1.875 1.918 1.875h12.163c1.046 0 1.918-0.828 1.918-1.875v-12.251c0-1.046-0.872-1.875-1.918-1.875zM11.51 2.485c0-0.262 0.218-0.48 0.48-0.48h1.526c0.262 0 0.48 0.218 0.48 0.48v1.482c0 0.262-0.218 0.48-0.48 0.48h-1.482c-0.262 0-0.48-0.218-0.48-0.48l-0.044-1.482zM8.022 4.926c1.7 0 3.095 1.351 3.095 3.052s-1.395 3.052-3.095 3.052-3.095-1.351-3.095-3.052c0-1.657 1.395-3.052 3.095-3.052zM14.474 13.995c0 0.262-0.218 0.48-0.48 0.48h-11.989c-0.262 0-0.48-0.218-0.48-0.48v-7.499h1.962c-0.262 0.392-0.349 1.090-0.349 1.526 0 2.659 2.18 4.839 4.883 4.839s4.883-2.18 4.883-4.839c0-0.436-0.044-1.134-0.392-1.526h2.005l-0.044 7.499z"></path>
  </symbol>

  <symbol id="tw" viewBox="0 0 16 16">
    <path fill="#b3b3b3" style="fill: var(--color1, #b3b3b3)" d="M15.564 1.613c-0.654 0.392-1.351 0.654-2.093 0.828-0.61-0.654-1.439-1.046-2.398-1.046-1.831 0-3.27 1.526-3.27 3.357 0 0.262 0.044 0.523 0.087 0.785-2.747-0.174-5.144-1.526-6.758-3.575-0.262 0.48-0.436 1.090-0.436 1.7 0 1.177 0.567 2.18 1.482 2.79-0.523 0-1.046-0.174-1.482-0.436v0.087c0 1.613 1.134 3.008 2.616 3.313-0.262 0.087-0.567 0.131-0.872 0.131-0.218 0-0.436 0-0.61-0.044 0.436 1.351 1.613 2.311 3.052 2.354-1.134 0.916-2.529 1.439-4.098 1.439-0.262 0-0.523 0-0.785-0.044 1.439 0.959 3.183 1.526 5.014 1.526 6.060 0 9.33-5.144 9.33-9.591 0-0.131 0-0.305 0-0.436 0.654-0.48 1.221-1.046 1.657-1.744-0.567 0.262-1.221 0.436-1.875 0.523 0.654-0.48 1.177-1.134 1.439-1.918z"></path>
  </symbol>

  <symbol id="team_arrow" viewBox="0 0 16 16">
    <path d="M1.778 2.667c0 0.533 1.422 3.022 3.022 5.511l3.022 4.622 3.2-4.267c4.444-5.867 4.089-6.756-3.022-6.756-3.378 0-6.222 0.356-6.222 0.889z"></path>
  </symbol>
</svg>